<?xml version="1.0" encoding="UTF-8"?>
<!DOCTYPE svg PUBLIC "-//W3C//DTD SVG 1.1//EN" "http://www.w3.org/Graphics/SVG/1.1/DTD/svg11.dtd">
<svg xmlns="http://www.w3.org/2000/svg" version="1.1" width="37px" height="33px" style="shape-rendering:geometricPrecision; text-rendering:geometricPrecision; image-rendering:optimizeQuality; fill-rule:evenodd; clip-rule:evenodd" xmlns:xlink="http://www.w3.org/1999/xlink">
<g><path style="opacity:0.855" fill="#33478f" d="M 203.5,54.5 C 203.167,55.8333 202.833,57.1667 202.5,58.5C 198.063,57.8967 194.896,55.5633 193,51.5C 192.521,54.6237 191.354,57.4571 189.5,60C 185.78,61.392 183.78,60.2253 183.5,56.5C 184.082,53.6282 184.082,50.6282 183.5,47.5C 181.319,44.6859 179.652,41.6859 178.5,38.5C 176.175,31.1597 172.175,29.993 166.5,35C 165.207,35.49 163.873,35.6567 162.5,35.5C 160.692,28.4456 163.526,24.4456 171,23.5C 174.832,23.704 177.832,25.3706 180,28.5C 179.247,25.7106 177.58,23.3773 175,21.5C 174.333,20.5 174.333,19.5 175,18.5C 177,17.8333 179,17.1667 181,16.5C 181.384,12.3466 182.384,8.34661 184,4.5C 188.298,3.07896 190.965,4.74563 192,9.5C 192.758,11.7695 192.591,13.9361 191.5,16C 199.886,16.7428 201.053,19.5761 195,24.5C 194.333,25.1667 194.333,25.8333 195,26.5C 200.429,22.9479 205.763,23.2813 211,27.5C 212.081,30.9684 211.415,33.9684 209,36.5C 206.502,34.8463 204.002,33.1797 201.5,31.5C 198.614,32.5964 196.614,34.5964 195.5,37.5C 202.383,41.6853 202.05,45.1853 194.5,48C 197.5,48.3333 199.167,50 199.5,53C 200.745,53.7914 202.078,54.2914 203.5,54.5 Z M 182.5,33.5 C 183.782,34.7082 183.782,36.0416 182.5,37.5C 182.094,36.4425 182.094,35.1092 182.5,33.5 Z"/></g>
<g><path style="opacity:0.475" fill="#313a73" d="M 235.5,51.5 C 236.5,51.5 237.5,51.5 238.5,51.5C 238.238,52.9778 238.571,54.3112 239.5,55.5C 241.409,54.6518 243.409,54.3184 245.5,54.5C 245.631,55.3764 245.298,56.0431 244.5,56.5C 238.645,57.8454 233.978,61.012 230.5,66C 229.552,66.4828 228.552,66.6495 227.5,66.5C 227.5,68.1667 227.5,69.8333 227.5,71.5C 226.957,71.56 226.624,71.8933 226.5,72.5C 228.345,74.5364 228.845,76.8697 228,79.5C 227.014,80.1712 225.847,80.1712 224.5,79.5C 224.483,76.2806 224.649,72.9473 225,69.5C 223.601,70.2266 222.101,70.7266 220.5,71C 221.416,71.2784 222.082,71.7784 222.5,72.5C 221.5,72.5 220.5,72.5 219.5,72.5C 218.127,72.6567 216.793,72.49 215.5,72C 214.359,71.2588 214.359,70.4255 215.5,69.5C 198.651,68.9074 181.984,67.9074 165.5,66.5C 183.17,66.6666 200.836,66.4999 218.5,66C 215.488,65.2196 212.655,64.0529 210,62.5C 207.599,63.6023 205.099,63.769 202.5,63C 198.552,61.314 198.552,59.814 202.5,58.5C 202.833,57.1667 203.167,55.8333 203.5,54.5C 209.709,55.2515 212.709,52.5848 212.5,46.5C 211.5,46.5 210.5,46.5 209.5,46.5C 209.357,44.7376 209.691,43.0709 210.5,41.5C 212.911,40.912 214.911,39.7454 216.5,38C 217.944,37.2195 219.277,37.3861 220.5,38.5C 221.641,39.4255 221.641,40.2588 220.5,41C 224.853,42.2881 225.686,44.7881 223,48.5C 220.863,49.4786 219.029,50.8119 217.5,52.5C 221.552,61.3005 227.552,62.8005 235.5,57C 238.018,55.1899 238.018,53.3566 235.5,51.5 Z M 224.5,64.5 C 225.289,64.7828 225.956,65.2828 226.5,66C 225.167,66.6667 223.833,66.6667 222.5,66C 223.416,65.7216 224.082,65.2216 224.5,64.5 Z"/></g>
<g><path style="opacity:0.9" fill="#29428f" d="M 245.5,54.5 C 243.409,54.3184 241.409,54.6518 239.5,55.5C 238.571,54.3112 238.238,52.9778 238.5,51.5C 237.5,51.5 236.5,51.5 235.5,51.5C 233.143,51.6633 230.81,51.4966 228.5,51C 228.043,50.586 227.709,50.086 227.5,49.5C 228.875,46.6268 229.875,43.6268 230.5,40.5C 234.446,39.8155 238.446,39.8155 242.5,40.5C 242.5,43.1667 242.5,45.8333 242.5,48.5C 243.675,48.719 244.675,48.3857 245.5,47.5C 245.741,43.3173 247.907,41.3173 252,41.5C 255.5,42 259,42.5 262.5,43C 263.38,44.3561 263.714,45.8561 263.5,47.5C 256.656,48.0278 250.656,50.3612 245.5,54.5 Z"/></g>
<g><path style="opacity:0.91" fill="#2c3f8a" d="M 135.5,55.5 C 135.218,56.7777 134.551,57.7777 133.5,58.5C 127.469,52.6464 120.469,49.3131 112.5,48.5C 110.421,46.1749 110.255,43.8416 112,41.5C 114.432,41.4766 116.932,41.8099 119.5,42.5C 120.833,41.8333 122.167,41.1667 123.5,40.5C 125.572,42.3495 126.905,44.6829 127.5,47.5C 128.325,48.3857 129.325,48.719 130.5,48.5C 130.5,45.8333 130.5,43.1667 130.5,40.5C 131.93,40.4208 133.264,40.7542 134.5,41.5C 137.289,39.7018 140.289,39.2018 143.5,40C 144.126,40.7504 144.626,41.5838 145,42.5C 144.529,45.2074 144.529,47.8741 145,50.5C 143.333,51.8333 141.667,51.8333 140,50.5C 137.928,51.7343 136.428,53.4009 135.5,55.5 Z"/></g>
<g><path style="opacity:0.274" fill="#383e75" d="M 178.5,38.5 C 179.652,41.6859 181.319,44.6859 183.5,47.5C 184.082,50.6282 184.082,53.6282 183.5,56.5C 181.771,55.8825 180.271,54.8825 179,53.5C 178.535,54.9308 177.701,56.0975 176.5,57C 173.118,57.1764 169.785,57.6764 166.5,58.5C 171.156,59.5688 175.822,59.5688 180.5,58.5C 180.5,59.5 180.5,60.5 180.5,61.5C 176.227,62.4646 171.894,63.1313 167.5,63.5C 164.895,63.6206 162.895,64.6206 161.5,66.5C 160.833,66.1667 160.167,65.8333 159.5,65.5C 160.463,64.6365 160.463,63.9698 159.5,63.5C 156.765,65.4731 153.931,65.8065 151,64.5C 144.902,65.8655 145.069,66.5321 151.5,66.5C 146.372,67.9492 146.372,69.6158 151.5,71.5C 147.141,72.2261 144.808,70.7261 144.5,67C 140.939,63.9274 137.272,61.0941 133.5,58.5C 134.551,57.7777 135.218,56.7777 135.5,55.5C 138.758,57.9604 142.424,59.627 146.5,60.5C 151.831,60.0015 155.164,57.1682 156.5,52C 154.161,49.6614 151.828,47.3281 149.5,45C 152.154,42.5042 154.321,39.6709 156,36.5C 157.314,37.3128 158.481,38.3128 159.5,39.5C 160.086,39.2907 160.586,38.9574 161,38.5C 165.052,41.8641 165.385,45.5308 162,49.5C 161.08,49.9302 160.247,50.2635 159.5,50.5C 167.328,57.7682 173.662,56.6015 178.5,47C 174.707,46.8798 173.207,45.0465 174,41.5C 175.652,40.6006 177.152,39.6006 178.5,38.5 Z M 183.5,47.5 C 181.479,52.3659 180.479,52.3659 180.5,47.5C 181.5,47.5 182.5,47.5 183.5,47.5 Z M 159.5,65.5 C 156.946,66.388 154.279,66.7214 151.5,66.5C 145.069,66.5321 144.902,65.8655 151,64.5C 153.931,65.8065 156.765,65.4731 159.5,63.5C 160.463,63.9698 160.463,64.6365 159.5,65.5 Z"/></g>
<g><path style="opacity:0.004" fill="#0000f1" d="M 167.5,63.5 C 166.694,64.7281 165.694,65.7281 164.5,66.5C 163.5,65.1667 162.5,65.1667 161.5,66.5C 162.895,64.6206 164.895,63.6206 167.5,63.5 Z"/></g>
<g><path style="opacity:0.878" fill="#354595" d="M 159.5,65.5 C 160.167,65.8333 160.833,66.1667 161.5,66.5C 162.5,65.1667 163.5,65.1667 164.5,66.5C 164.833,66.5 165.167,66.5 165.5,66.5C 181.984,67.9074 198.651,68.9074 215.5,69.5C 214.359,70.4255 214.359,71.2588 215.5,72C 216.793,72.49 218.127,72.6567 219.5,72.5C 220.5,73.8333 221.5,73.8333 222.5,72.5C 222.082,71.7784 221.416,71.2784 220.5,71C 222.101,70.7266 223.601,70.2266 225,69.5C 224.649,72.9473 224.483,76.2806 224.5,79.5C 216.969,79.362 209.969,81.0286 203.5,84.5C 202.34,83.735 201.34,82.735 200.5,81.5C 201.752,79.9991 202.752,78.3325 203.5,76.5C 194.134,75.6986 185.134,74.3653 176.5,72.5C 168.35,71.5073 160.017,71.1739 151.5,71.5C 146.372,69.6158 146.372,67.9492 151.5,66.5C 154.279,66.7214 156.946,66.388 159.5,65.5 Z"/></g>
<g><path style="opacity:0.004" fill="#000000" d="M 227.5,71.5 C 228.833,72.1667 228.833,72.1667 227.5,71.5 Z"/></g>
<g><path style="opacity:1" fill="#2946a5" d="M 152.5,72.5 C 160.5,72.5 168.5,72.5 176.5,72.5C 185.134,74.3653 194.134,75.6986 203.5,76.5C 202.752,78.3325 201.752,79.9991 200.5,81.5C 201.34,82.735 202.34,83.735 203.5,84.5C 202.833,85.8333 201.833,86.8333 200.5,87.5C 199.316,86.3121 199.316,85.1455 200.5,84C 199.975,83.3076 199.308,82.8076 198.5,82.5C 196.537,85.002 196.204,87.6687 197.5,90.5C 193.011,92.3767 188.345,92.3767 183.5,90.5C 185.926,87.0831 189.259,85.7498 193.5,86.5C 193.229,84.1789 193.896,82.1789 195.5,80.5C 194.092,79.7568 192.759,78.9234 191.5,78C 176.508,76.8885 161.508,76.7219 146.5,77.5C 146.5,76.5 146.5,75.5 146.5,74.5C 149.01,74.9465 151.01,74.2798 152.5,72.5 Z"/></g>
<g><path style="opacity:1" fill="#234ca2" d="M 152.5,72.5 C 151.01,74.2798 149.01,74.9465 146.5,74.5C 146.5,75.5 146.5,76.5 146.5,77.5C 161.508,76.7219 176.508,76.8885 191.5,78C 192.759,78.9234 194.092,79.7568 195.5,80.5C 193.896,82.1789 193.229,84.1789 193.5,86.5C 189.259,85.7498 185.926,87.0831 183.5,90.5C 188.345,92.3767 193.011,92.3767 197.5,90.5C 196.204,87.6687 196.537,85.002 198.5,82.5C 199.308,82.8076 199.975,83.3076 200.5,84C 199.316,85.1455 199.316,86.3121 200.5,87.5C 199.897,89.6794 199.23,91.846 198.5,94C 202.133,96.65 206.133,98.4833 210.5,99.5C 210.755,100.936 211.088,102.436 211.5,104C 215.167,104.667 218.833,104.667 222.5,104C 221.833,103.667 221.167,103.333 220.5,103C 223.687,102.999 226.52,102.166 229,100.5C 229.063,117.663 229.896,134.663 231.5,151.5C 229.847,152.799 228.347,152.466 227,150.5C 224.811,135.95 218.311,123.784 207.5,114C 204.751,112.877 202.251,111.377 200,109.5C 199.536,110.094 199.369,110.761 199.5,111.5C 198.25,111.577 197.417,112.244 197,113.5C 196.501,117.486 196.334,121.486 196.5,125.5C 195.5,125.5 194.5,125.5 193.5,125.5C 194.902,129.114 195.569,132.947 195.5,137C 194.37,145.732 194.37,154.399 195.5,163C 194.207,163.49 192.873,163.657 191.5,163.5C 191.5,164.833 191.5,166.167 191.5,167.5C 196.849,167.197 198.516,169.531 196.5,174.5C 197.729,175.281 199.062,175.781 200.5,176C 200.167,176.333 199.833,176.667 199.5,177C 201.5,177.667 202.833,179 203.5,181C 206.146,181.497 208.813,181.664 211.5,181.5C 211.5,182.5 211.5,183.5 211.5,184.5C 212.5,184.5 213.5,184.5 214.5,184.5C 214.5,185.5 214.5,186.5 214.5,187.5C 217.833,187.5 219.5,189.167 219.5,192.5C 218.127,192.343 216.793,192.51 215.5,193C 217.515,193.424 219.349,194.258 221,195.5C 222.94,193.838 223.606,194.171 223,196.5C 222.107,197.081 221.107,197.415 220,197.5C 216.157,196.053 212.324,194.72 208.5,193.5C 208.5,194.833 208.5,196.167 208.5,197.5C 206.251,196.769 204.084,195.769 202,194.5C 200.365,194.878 198.865,195.544 197.5,196.5C 199.813,197.273 202.146,197.94 204.5,198.5C 205.308,200.423 205.808,202.423 206,204.5C 207.558,203.655 208.558,204.321 209,206.5C 209.333,206.167 209.667,205.833 210,205.5C 211.105,207.601 212.271,209.601 213.5,211.5C 213.167,212.167 212.833,212.833 212.5,213.5C 211.583,212.873 210.583,212.539 209.5,212.5C 207.087,210.113 204.42,207.946 201.5,206C 200.552,205.517 199.552,205.351 198.5,205.5C 198.226,210.263 198.559,214.93 199.5,219.5C 197.688,218.652 196.188,218.652 195,219.5C 193.985,223.44 193.485,227.44 193.5,231.5C 196.893,231.062 199.893,231.895 202.5,234C 202.272,234.399 201.938,234.565 201.5,234.5C 198.881,233.197 196.547,233.697 194.5,236C 199.769,238.716 205.436,240.049 211.5,240C 213.324,240.66 214.657,241.827 215.5,243.5C 195.833,243.5 176.167,243.5 156.5,243.5C 154.369,242.686 152.036,242.186 149.5,242C 148.663,240.989 148.33,239.822 148.5,238.5C 154.524,237.667 160.524,236.5 166.5,235C 167.066,234.005 167.733,233.172 168.5,232.5C 169.5,232.5 170.5,232.5 171.5,232.5C 173.902,218.258 174.569,203.924 173.5,189.5C 171.639,188.472 170.305,186.972 169.5,185C 168.552,184.517 167.552,184.351 166.5,184.5C 166.657,183.127 166.49,181.793 166,180.5C 164.274,178.985 162.774,177.318 161.5,175.5C 160.52,176.981 159.353,178.315 158,179.5C 155.923,176.575 153.09,174.742 149.5,174C 150.308,173.692 150.975,173.192 151.5,172.5C 149.955,170.457 148.621,168.29 147.5,166C 147.493,164.188 148.16,162.688 149.5,161.5C 147.615,160.803 147.282,159.803 148.5,158.5C 142.317,157.007 140.65,159.007 143.5,164.5C 143.167,165.167 142.833,165.833 142.5,166.5C 140.076,165.577 138.076,164.077 136.5,162C 135.207,161.51 133.873,161.343 132.5,161.5C 132.425,158.794 132.092,156.127 131.5,153.5C 130.325,153.719 129.325,153.386 128.5,152.5C 127.187,150.17 125.687,147.837 124,145.5C 123.333,141.5 123.333,137.5 124,133.5C 125.59,129.362 127.09,125.196 128.5,121C 128.355,120.228 128.022,119.561 127.5,119C 129.562,117.468 130.896,115.468 131.5,113C 133.974,112.887 135.974,111.887 137.5,110C 136.272,108.51 136.272,107.01 137.5,105.5C 141.084,101.696 145.417,98.8627 150.5,97C 156.697,94.5346 163.031,92.5346 169.5,91C 164.206,81.4335 156.039,76.9335 145,77.5C 144.316,76.2161 144.483,75.0495 145.5,74C 147.74,73.023 150.073,72.523 152.5,72.5 Z M 162.5,150.5 C 154.742,146.575 149.242,140.575 146,132.5C 144.444,123.658 147.277,116.658 154.5,111.5C 158.895,107.925 163.895,105.925 169.5,105.5C 169.667,122.17 169.5,138.837 169,155.5C 166.713,153.946 164.546,152.279 162.5,150.5 Z"/></g>
<g><path style="opacity:1" fill="#32478a" d="M 231.5,151.5 C 229.896,134.663 229.063,117.663 229,100.5C 226.52,102.166 223.687,102.999 220.5,103C 221.167,103.333 221.833,103.667 222.5,104C 218.833,104.667 215.167,104.667 211.5,104C 211.088,102.436 210.755,100.936 210.5,99.5C 214.847,101.214 219.181,101.381 223.5,100C 224.403,96.8618 226.07,94.1951 228.5,92C 229.784,91.3162 230.951,91.4829 232,92.5C 232.227,102.689 232.727,112.856 233.5,123C 232.896,132.653 232.23,142.153 231.5,151.5 Z"/></g>
<g><path style="opacity:0.43" fill="#3c488c" d="M 162.5,150.5 C 164.546,152.279 166.713,153.946 169,155.5C 169.5,138.837 169.667,122.17 169.5,105.5C 163.895,105.925 158.895,107.925 154.5,111.5C 154.488,107.554 156.488,105.887 160.5,106.5C 160.5,105.5 160.5,104.5 160.5,103.5C 163.09,103.604 165.423,102.937 167.5,101.5C 170.45,102.625 172.45,104.625 173.5,107.5C 171.492,121.426 170.992,135.426 172,149.5C 172.333,147.5 172.667,145.5 173,143.5C 173.432,148.846 173.266,154.18 172.5,159.5C 171.127,159.657 169.793,159.49 168.5,159C 165.899,156.57 163.899,153.736 162.5,150.5 Z"/></g>
<g><path style="opacity:0.988" fill="#2e4790" d="M 137.5,105.5 C 136.272,107.01 136.272,108.51 137.5,110C 135.974,111.887 133.974,112.887 131.5,113C 130.896,115.468 129.562,117.468 127.5,119C 128.022,119.561 128.355,120.228 128.5,121C 127.09,125.196 125.59,129.362 124,133.5C 123.333,137.5 123.333,141.5 124,145.5C 125.687,147.837 127.187,150.17 128.5,152.5C 129.325,153.386 130.325,153.719 131.5,153.5C 132.092,156.127 132.425,158.794 132.5,161.5C 133.873,161.343 135.207,161.51 136.5,162C 138.076,164.077 140.076,165.577 142.5,166.5C 142.833,165.833 143.167,165.167 143.5,164.5C 140.65,159.007 142.317,157.007 148.5,158.5C 147.282,159.803 147.615,160.803 149.5,161.5C 148.16,162.688 147.493,164.188 147.5,166C 148.621,168.29 149.955,170.457 151.5,172.5C 150.975,173.192 150.308,173.692 149.5,174C 153.09,174.742 155.923,176.575 158,179.5C 159.353,178.315 160.52,176.981 161.5,175.5C 162.774,177.318 164.274,178.985 166,180.5C 166.49,181.793 166.657,183.127 166.5,184.5C 167.552,184.351 168.552,184.517 169.5,185C 170.305,186.972 171.639,188.472 173.5,189.5C 174.569,203.924 173.902,218.258 171.5,232.5C 170.5,232.5 169.5,232.5 168.5,232.5C 170.567,228.551 170.9,224.551 169.5,220.5C 169.908,210.959 170.241,201.459 170.5,192C 169.874,191.25 169.374,190.416 169,189.5C 163.406,185.952 157.573,182.785 151.5,180C 141.934,173.977 133.768,166.477 127,157.5C 117.152,137.236 120.652,119.902 137.5,105.5 Z"/></g>
<g><path style="opacity:1" fill="#274795" d="M 199.5,111.5 C 198.25,131.126 198.584,150.793 200.5,170.5C 210.667,176.416 220.667,182.583 230.5,189C 233.667,192.167 236.833,195.333 240,198.5C 242.246,202.234 243.913,206.234 245,210.5C 245.129,216.914 245.796,223.247 247,229.5C 262.375,231.43 275.542,227.097 286.5,216.5C 285.152,222.024 282.152,226.357 277.5,229.5C 272.932,229.888 268.599,231.054 264.5,233C 260.798,233.681 257.131,233.515 253.5,232.5C 251.664,233.933 249.664,234.433 247.5,234C 245.833,232.333 244.167,230.667 242.5,229C 244.202,223.693 243.536,218.693 240.5,214C 241.476,211.853 241.309,209.686 240,207.5C 239,206.167 238,206.167 237,207.5C 236.02,205.941 235.187,204.274 234.5,202.5C 233.501,205.174 231.834,205.841 229.5,204.5C 225.911,206.468 222.911,209.135 220.5,212.5C 219.481,211.313 218.314,210.313 217,209.5C 216.023,217.207 218.19,223.874 223.5,229.5C 220.314,230.592 217.647,232.425 215.5,235C 212.16,235.453 208.826,235.953 205.5,236.5C 203.645,236.66 202.312,235.993 201.5,234.5C 201.938,234.565 202.272,234.399 202.5,234C 199.893,231.895 196.893,231.062 193.5,231.5C 193.485,227.44 193.985,223.44 195,219.5C 196.188,218.652 197.688,218.652 199.5,219.5C 199.07,222.862 200.07,225.695 202.5,228C 207.387,229.569 212.387,230.236 217.5,230C 218.598,227.502 218.432,225.002 217,222.5C 215.053,218.724 212.553,215.39 209.5,212.5C 210.583,212.539 211.583,212.873 212.5,213.5C 212.833,212.833 213.167,212.167 213.5,211.5C 212.271,209.601 211.105,207.601 210,205.5C 209.667,205.833 209.333,206.167 209,206.5C 208.558,204.321 207.558,203.655 206,204.5C 205.808,202.423 205.308,200.423 204.5,198.5C 202.146,197.94 199.813,197.273 197.5,196.5C 198.865,195.544 200.365,194.878 202,194.5C 204.084,195.769 206.251,196.769 208.5,197.5C 208.5,196.167 208.5,194.833 208.5,193.5C 212.324,194.72 216.157,196.053 220,197.5C 221.107,197.415 222.107,197.081 223,196.5C 223.606,194.171 222.94,193.838 221,195.5C 219.349,194.258 217.515,193.424 215.5,193C 216.793,192.51 218.127,192.343 219.5,192.5C 219.5,189.167 217.833,187.5 214.5,187.5C 214.5,186.5 214.5,185.5 214.5,184.5C 213.5,184.5 212.5,184.5 211.5,184.5C 211.5,183.5 211.5,182.5 211.5,181.5C 208.813,181.664 206.146,181.497 203.5,181C 202.833,179 201.5,177.667 199.5,177C 199.833,176.667 200.167,176.333 200.5,176C 199.062,175.781 197.729,175.281 196.5,174.5C 198.516,169.531 196.849,167.197 191.5,167.5C 191.5,166.167 191.5,164.833 191.5,163.5C 192.873,163.657 194.207,163.49 195.5,163C 194.37,154.399 194.37,145.732 195.5,137C 195.569,132.947 194.902,129.114 193.5,125.5C 194.5,125.5 195.5,125.5 196.5,125.5C 196.334,121.486 196.501,117.486 197,113.5C 197.417,112.244 198.25,111.577 199.5,111.5 Z"/></g>
<g><path style="opacity:1" fill="#214da6" d="M 286.5,216.5 C 286.5,216.167 286.5,215.833 286.5,215.5C 287.496,215.414 288.329,215.748 289,216.5C 290.726,214.985 292.226,213.318 293.5,211.5C 294.262,212.628 294.929,213.795 295.5,215C 293.443,219.247 291.443,223.914 289.5,229C 290.423,231.041 290.756,233.208 290.5,235.5C 288.952,235.821 288.285,236.821 288.5,238.5C 286.345,238.372 284.345,238.872 282.5,240C 268.455,240.816 254.455,240.649 240.5,239.5C 238.461,240.277 237.795,241.443 238.5,243C 236.598,243.199 235.098,244.033 234,245.5C 232.887,244.289 231.72,244.289 230.5,245.5C 229.385,248.112 227.718,250.279 225.5,252C 226.167,252.333 226.833,252.667 227.5,253C 225.84,255.313 224.507,257.813 223.5,260.5C 220.143,260.23 217.809,260.896 216.5,262.5C 216.083,261.876 215.416,261.543 214.5,261.5C 213.259,262.037 212.092,262.704 211,263.5C 209.908,262.704 208.741,262.037 207.5,261.5C 199.243,264.978 190.909,265.644 182.5,263.5C 180.392,263.86 178.392,264.527 176.5,265.5C 174.5,264.5 172.5,263.5 170.5,262.5C 168.664,263.933 166.664,264.433 164.5,264C 165.833,263.333 165.833,262.667 164.5,262C 160.712,260.85 157.046,259.517 153.5,258C 155.129,257.415 156.629,256.581 158,255.5C 159.171,256.34 160.338,257.173 161.5,258C 166.338,257.996 170.838,259.163 175,261.5C 183.286,260.793 191.786,260.627 200.5,261C 202.439,260.092 203.439,258.592 203.5,256.5C 205.981,256.226 207.647,254.893 208.5,252.5C 211.215,249.786 213.549,246.786 215.5,243.5C 214.657,241.827 213.324,240.66 211.5,240C 205.436,240.049 199.769,238.716 194.5,236C 196.547,233.697 198.881,233.197 201.5,234.5C 202.312,235.993 203.645,236.66 205.5,236.5C 208.826,235.953 212.16,235.453 215.5,235C 217.647,232.425 220.314,230.592 223.5,229.5C 218.19,223.874 216.023,217.207 217,209.5C 218.314,210.313 219.481,211.313 220.5,212.5C 222.911,209.135 225.911,206.468 229.5,204.5C 231.834,205.841 233.501,205.174 234.5,202.5C 235.187,204.274 236.02,205.941 237,207.5C 238,206.167 239,206.167 240,207.5C 241.309,209.686 241.476,211.853 240.5,214C 243.536,218.693 244.202,223.693 242.5,229C 244.167,230.667 245.833,232.333 247.5,234C 249.664,234.433 251.664,233.933 253.5,232.5C 257.131,233.515 260.798,233.681 264.5,233C 268.599,231.054 272.932,229.888 277.5,229.5C 282.152,226.357 285.152,222.024 286.5,216.5 Z"/></g>
<g><path style="opacity:1" fill="#2c4588" d="M 290.5,235.5 C 290.756,233.208 290.423,231.041 289.5,229C 291.443,223.914 293.443,219.247 295.5,215C 294.929,213.795 294.262,212.628 293.5,211.5C 292.226,213.318 290.726,214.985 289,216.5C 288.329,215.748 287.496,215.414 286.5,215.5C 290.277,209.056 293.611,202.389 296.5,195.5C 298.765,194.353 301.098,194.186 303.5,195C 304.059,195.725 304.392,196.558 304.5,197.5C 300.74,210.567 296.073,223.234 290.5,235.5 Z"/></g>
<g><path style="opacity:0.81" fill="#293c7f" d="M 131.5,215.5 C 130.312,214.316 129.145,214.316 128,215.5C 126.288,232.812 126.122,250.145 127.5,267.5C 128.569,266.09 129.903,265.09 131.5,264.5C 132.247,267.017 131.247,269.017 128.5,270.5C 126.742,269.872 125.242,268.872 124,267.5C 123.333,249.5 123.333,231.5 124,213.5C 124.949,210.8 126.783,209.967 129.5,211C 131.037,212.11 131.703,213.61 131.5,215.5 Z"/></g>
<g><path style="opacity:0.639" fill="#324479" d="M 169.5,220.5 C 170.9,224.551 170.567,228.551 168.5,232.5C 167.733,233.172 167.066,234.005 166.5,235C 160.524,236.5 154.524,237.667 148.5,238.5C 148.33,239.822 148.663,240.989 149.5,242C 152.036,242.186 154.369,242.686 156.5,243.5C 152.833,243.5 149.167,243.5 145.5,243.5C 143.393,242.532 141.059,242.198 138.5,242.5C 138.66,240.801 138.494,239.134 138,237.5C 137.667,237.833 137.333,238.167 137,238.5C 135.936,236.731 134.769,235.064 133.5,233.5C 133.801,231.578 134.467,229.912 135.5,228.5C 136.896,231.846 138.396,235.179 140,238.5C 140.908,240.439 142.408,241.439 144.5,241.5C 144.286,239.856 144.62,238.356 145.5,237C 152.433,236.909 159.1,235.576 165.5,233C 168.291,229.346 169.625,225.18 169.5,220.5 Z"/></g>
<g><path style="opacity:1" fill="#2f4089" d="M 290.5,235.5 C 290.518,239.637 288.518,242.137 284.5,243C 269.833,243.333 255.167,243.667 240.5,244C 237.032,247.26 234.032,250.926 231.5,255C 228.678,256.664 226.011,258.497 223.5,260.5C 224.507,257.813 225.84,255.313 227.5,253C 226.833,252.667 226.167,252.333 225.5,252C 227.718,250.279 229.385,248.112 230.5,245.5C 231.72,244.289 232.887,244.289 234,245.5C 235.098,244.033 236.598,243.199 238.5,243C 237.795,241.443 238.461,240.277 240.5,239.5C 254.455,240.649 268.455,240.816 282.5,240C 284.345,238.872 286.345,238.372 288.5,238.5C 288.285,236.821 288.952,235.821 290.5,235.5 Z"/></g>
<g><path style="opacity:1" fill="#254b9d" d="M 131.5,215.5 C 132.797,219.733 134.131,224.067 135.5,228.5C 134.467,229.912 133.801,231.578 133.5,233.5C 134.769,235.064 135.936,236.731 137,238.5C 137.333,238.167 137.667,237.833 138,237.5C 138.494,239.134 138.66,240.801 138.5,242.5C 141.059,242.198 143.393,242.532 145.5,243.5C 148.375,247.281 152.042,250.114 156.5,252C 168.4,257.317 180.734,258.984 193.5,257C 198.548,255.595 203.548,254.095 208.5,252.5C 207.647,254.893 205.981,256.226 203.5,256.5C 203.439,258.592 202.439,260.092 200.5,261C 191.786,260.627 183.286,260.793 175,261.5C 170.838,259.163 166.338,257.996 161.5,258C 160.338,257.173 159.171,256.34 158,255.5C 156.629,256.581 155.129,257.415 153.5,258C 157.046,259.517 160.712,260.85 164.5,262C 165.833,262.667 165.833,263.333 164.5,264C 166.664,264.433 168.664,263.933 170.5,262.5C 172.5,263.5 174.5,264.5 176.5,265.5C 178.392,264.527 180.392,263.86 182.5,263.5C 190.909,265.644 199.243,264.978 207.5,261.5C 208.741,262.037 209.908,262.704 211,263.5C 212.092,262.704 213.259,262.037 214.5,261.5C 215.416,261.543 216.083,261.876 216.5,262.5C 212.843,264.141 209.009,265.474 205,266.5C 204.228,266.355 203.561,266.022 203,265.5C 200.443,267.314 197.776,267.648 195,266.5C 188.333,267.167 181.667,267.833 175,268.5C 171.595,266.147 167.762,264.98 163.5,265C 161.914,262.173 160.248,262.007 158.5,264.5C 152.425,261.626 146.092,259.626 139.5,258.5C 137.667,258.585 136.334,259.252 135.5,260.5C 133.672,261.283 132.339,262.616 131.5,264.5C 129.903,265.09 128.569,266.09 127.5,267.5C 126.122,250.145 126.288,232.812 128,215.5C 129.145,214.316 130.312,214.316 131.5,215.5 Z"/></g>
<g><path style="opacity:0.565" fill="#2e3e7a" d="M 216.5,262.5 C 217.809,260.896 220.143,260.23 223.5,260.5C 219.538,263.148 215.204,265.315 210.5,267C 190.019,272.628 170.019,271.295 150.5,263C 145.543,261.842 140.543,261.008 135.5,260.5C 136.334,259.252 137.667,258.585 139.5,258.5C 146.092,259.626 152.425,261.626 158.5,264.5C 160.248,262.007 161.914,262.173 163.5,265C 167.762,264.98 171.595,266.147 175,268.5C 181.667,267.833 188.333,267.167 195,266.5C 197.776,267.648 200.443,267.314 203,265.5C 203.561,266.022 204.228,266.355 205,266.5C 209.009,265.474 212.843,264.141 216.5,262.5 Z"/></g>
<g><path style="opacity:0.004" fill="#000000" d="M 228.5,285.5 C 229.525,285.897 229.692,286.563 229,287.5C 228.536,286.906 228.369,286.239 228.5,285.5 Z"/></g>
<g><path style="opacity:0.792" fill="#2f4594" d="M 317.5,281.5 C 319.39,281.297 320.89,281.963 322,283.5C 323.659,286.43 323.992,289.43 323,292.5C 323.368,293.91 324.201,294.91 325.5,295.5C 327.167,291.881 327.667,288.215 327,284.5C 329.418,282.32 332.084,281.987 335,283.5C 335.333,289.167 335.667,294.833 336,300.5C 336.333,295.167 336.667,289.833 337,284.5C 338.871,285.668 340.371,285.168 341.5,283C 345.5,282.333 349.5,282.333 353.5,283C 357.87,284.978 358.536,287.811 355.5,291.5C 358.392,295.963 358.059,300.13 354.5,304C 348.78,306.013 343.113,305.847 337.5,303.5C 335.995,300.869 335.329,301.203 335.5,304.5C 330.616,304.418 325.616,304.584 320.5,305C 316.455,302.747 314.622,299.247 315,294.5C 311.712,305.274 304.878,308.107 294.5,303C 292.683,301.2 291.516,299.034 291,296.5C 290.992,299.061 290.159,301.561 288.5,304C 280.058,307.465 273.724,305.299 269.5,297.5C 268.588,301.133 267.921,304.8 267.5,308.5C 261.498,308.091 255.498,307.591 249.5,307C 250.672,306.581 251.672,305.915 252.5,305C 248.209,300.963 246.876,296.13 248.5,290.5C 245.881,290.768 243.381,290.435 241,289.5C 240.167,290.333 239.333,291.167 238.5,292C 239.199,295.8 239.865,299.633 240.5,303.5C 237.748,306.134 234.915,306.134 232,303.5C 231.333,297.167 231.333,290.833 232,284.5C 232.5,284 233,283.5 233.5,283C 239.187,282.026 244.687,282.526 250,284.5C 255.331,282.597 260.831,282.097 266.5,283C 267,283.5 267.5,284 268,284.5C 268.333,288.5 268.667,292.5 269,296.5C 269.226,293.905 269.726,291.405 270.5,289C 270.167,288.667 269.833,288.333 269.5,288C 272.167,286.333 274.833,284.667 277.5,283C 280.562,282.259 283.562,282.425 286.5,283.5C 288.816,285.47 290.649,287.804 292,290.5C 292.684,289.216 292.517,288.049 291.5,287C 298.964,281.582 306.464,281.082 314,285.5C 314.69,283.65 315.856,282.316 317.5,281.5 Z M 256.5,290.5 C 258.167,290.5 259.833,290.5 261.5,290.5C 260.908,293.127 260.575,295.794 260.5,298.5C 258.856,298.714 257.356,298.38 256,297.5C 255.297,295.071 255.463,292.738 256.5,290.5 Z M 300.5,290.5 C 301.833,290.5 303.167,290.5 304.5,290.5C 304.628,292.655 304.128,294.655 303,296.5C 300.867,294.921 300.034,292.921 300.5,290.5 Z M 322.5,297.5 C 323.077,296.227 323.743,296.227 324.5,297.5C 324.03,298.463 323.363,298.463 322.5,297.5 Z"/></g>
<g><path style="opacity:0.714" fill="#2d448e" d="M 192.5,282.5 C 204.4,279.572 209.4,284.072 207.5,296C 207.425,300.023 206.758,303.856 205.5,307.5C 201.021,307.647 196.521,307.98 192,308.5C 188.398,308.279 187.898,307.112 190.5,305C 187.245,302.778 185.578,299.611 185.5,295.5C 186.047,292.174 186.547,288.84 187,285.5C 188.876,284.391 190.709,283.391 192.5,282.5 Z M 195.5,297.5 C 194.532,295.393 194.198,293.059 194.5,290.5C 195.833,290.5 197.167,290.5 198.5,290.5C 198.663,292.857 198.497,295.19 198,297.5C 196.929,294.887 196.095,294.887 195.5,297.5 Z"/></g>
<g><path style="opacity:0.976" fill="#294290" d="M 140.5,281.5 C 142.17,281.751 143.67,282.418 145,283.5C 145.383,286.473 144.883,289.306 143.5,292C 143.833,292.333 144.167,292.667 144.5,293C 141.184,298.263 138.35,303.763 136,309.5C 133.48,308.793 130.98,307.96 128.5,307C 130.396,305.192 130.896,303.025 130,300.5C 128.389,295.277 126.223,290.277 123.5,285.5C 125.425,282.828 128.092,281.828 131.5,282.5C 133.538,294.779 135.705,295.112 138,283.5C 138.995,282.934 139.828,282.267 140.5,281.5 Z"/></g>
<g><path style="opacity:0.992" fill="#2d4690" d="M 154.5,290.5 C 153.64,299.973 157.973,304.64 167.5,304.5C 167.657,303.127 167.49,301.793 167,300.5C 165.052,299.891 163.218,299.224 161.5,298.5C 162.239,298.631 162.906,298.464 163.5,298C 162.922,296.583 161.922,295.75 160.5,295.5C 160.167,293.5 159.833,291.5 159.5,289.5C 161.933,289.727 163.599,288.727 164.5,286.5C 164.5,286.167 164.5,285.833 164.5,285.5C 163.833,285.5 163.5,285.833 163.5,286.5C 162.279,285.972 161.113,285.305 160,284.5C 159.803,289.178 158.803,289.512 157,285.5C 156.768,286.737 156.268,287.737 155.5,288.5C 155.279,275.404 161.279,271.404 173.5,276.5C 175.141,279.558 175.974,282.892 176,286.5C 178.653,289.085 179.153,292.085 177.5,295.5C 179.32,298.495 180.32,301.495 180.5,304.5C 180.113,305.72 179.28,306.387 178,306.5C 173.474,304.195 168.808,303.862 164,305.5C 153.726,304.772 150.559,299.772 154.5,290.5 Z M 164.5,285.5 C 163.15,284.176 163.317,283.176 165,282.5C 168.022,285.076 171.522,286.909 175.5,288C 172.888,288.639 170.554,289.806 168.5,291.5C 166.311,289.99 164.977,287.99 164.5,285.5 Z M 160.5,295.5 C 161.922,295.75 162.922,296.583 163.5,298C 162.906,298.464 162.239,298.631 161.5,298.5C 160.89,297.609 160.557,296.609 160.5,295.5 Z"/></g>
<g><path style="opacity:0.986" fill="#304893" d="M 214.5,282.5 C 225.609,281.366 230.442,286.366 229,297.5C 228.484,300.034 227.317,302.2 225.5,304C 212.046,307.55 206.546,302.384 209,288.5C 210.275,285.955 212.108,283.955 214.5,282.5 Z M 216.5,290.5 C 222.439,290.544 223.772,293.044 220.5,298C 219.216,298.684 218.049,298.517 217,297.5C 217.086,295.359 216.919,293.026 216.5,290.5 Z"/></g>
<g><path style="opacity:1" fill="#2d43a2" d="M 163.5,286.5 C 163.833,286.5 164.167,286.5 164.5,286.5C 163.599,288.727 161.933,289.727 159.5,289.5C 159.833,291.5 160.167,293.5 160.5,295.5C 160.557,296.609 160.89,297.609 161.5,298.5C 163.218,299.224 165.052,299.891 167,300.5C 167.49,301.793 167.657,303.127 167.5,304.5C 157.973,304.64 153.64,299.973 154.5,290.5C 155.338,290.158 155.672,289.492 155.5,288.5C 156.268,287.737 156.768,286.737 157,285.5C 158.803,289.512 159.803,289.178 160,284.5C 161.113,285.305 162.279,285.972 163.5,286.5 Z"/></g>
<g><path style="opacity:0.976" fill="#2b4794" d="M 106.5,273.5 C 108.754,274.315 111.087,274.981 113.5,275.5C 115.801,274.604 118.134,274.438 120.5,275C 121.126,275.75 121.626,276.584 122,277.5C 121.695,284.15 121.695,290.817 122,297.5C 126.473,304.681 124.64,306.847 116.5,304C 115.107,302.829 114.273,301.329 114,299.5C 113.667,291.833 113.333,284.167 113,276.5C 112.466,285.665 112.133,294.665 112,303.5C 111.261,304.574 110.261,305.241 109,305.5C 104.856,304.719 100.689,304.552 96.5,305C 93.9991,302.861 91.8324,300.361 90,297.5C 86.9329,305.308 81.4329,307.475 73.5,304C 71.2911,302.127 69.4578,299.96 68,297.5C 67.8253,301.211 67.3253,304.878 66.5,308.5C 61.8234,307.83 56.99,307.83 52,308.5C 48.4654,308.08 47.9654,306.913 50.5,305C 45.9146,298.107 45.2479,291.107 48.5,284C 50.5126,282.743 52.6793,281.909 55,281.5C 60.2746,281.664 65.108,282.997 69.5,285.5C 74.0083,283.259 78.5083,281.925 83,281.5C 85.1667,283 87.3333,284.5 89.5,286C 89.1667,286.333 88.8333,286.667 88.5,287C 89.2266,288.399 89.7266,289.899 90,291.5C 91.833,284.126 96.333,281.126 103.5,282.5C 103.337,280.143 103.503,277.81 104,275.5C 104.995,274.934 105.828,274.267 106.5,273.5 Z M 98.5,290.5 C 105.053,290.269 106.386,292.936 102.5,298.5C 99.7943,296.476 98.461,293.81 98.5,290.5 Z M 78.5,297.5 C 79.8333,297.167 79.8333,296.833 78.5,296.5C 78.2969,294.956 77.6302,293.622 76.5,292.5C 77.6685,290.783 79.3352,290.116 81.5,290.5C 81.5,293.167 81.5,295.833 81.5,298.5C 80.209,298.737 79.209,298.404 78.5,297.5 Z M 54.5,290.5 C 56.7159,290.275 58.3826,291.108 59.5,293C 58.5939,294.699 58.2606,296.533 58.5,298.5C 57.448,298.649 56.448,298.483 55.5,298C 55.8333,297.667 56.1667,297.333 56.5,297C 54.771,295.211 54.1043,293.044 54.5,290.5 Z"/></g>
</svg>
